<svg xmlns="http://www.w3.org/2000/svg" width="900" height="560" viewBox="0 0 900 560" role="img" aria-labelledby="title desc">
  <title id="title">Placeholder pupuk organik</title>
  <desc id="desc">Ilustrasi pupuk organik dari rumput sebagai gambar dummy.</desc>
  <rect width="900" height="560" fill="#f5faf7"/>
  <circle cx="710" cy="150" r="82" fill="#ffd36a"/>
  <rect y="345" width="900" height="215" fill="#8b6a3f"/>
  <path d="M110 350 C205 260 305 315 385 248 C455 188 545 250 610 208 C690 156 780 214 850 170 L850 350 Z" fill="#79b65f"/>
  <path d="M120 384 C245 318 365 405 485 342 C585 290 690 345 780 300" fill="none" stroke="#143c2b" stroke-width="18" stroke-linecap="round"/>
  <g fill="#1d6b48">
    <path d="M190 278 C145 260 126 218 134 178 C176 192 205 232 190 278 Z"/>
    <path d="M258 295 C300 276 322 236 318 194 C278 206 246 252 258 295 Z"/>
    <path d="M436 248 C392 232 372 192 380 152 C422 166 452 206 436 248 Z"/>
    <path d="M612 210 C656 192 678 152 674 110 C632 124 600 166 612 210 Z"/>
  </g>
  <text x="450" y="500" fill="#ffffff" font-family="Arial, Helvetica, sans-serif" font-size="28" font-weight="700" text-anchor="middle">Pupuk Organik dari Rumput</text>
</svg>
